# xmcd
#
# Track frame offsets: 
#        150
#        12671
#        25975
#        36649
#        50620
#        65155
#        78768
#        93664
#        105211
#        117354
#        128901
#        141546
#        155656
#        170910
#
# Disc length: 2436 seconds
#
# Revision: 1
# Processed by: cddbd v1.5.2PL0 Copyright (c) Steve Scherf et al.
# Submitted via: ExactAudioCopy v1.0b4
#
DISCID=cf09820e
DTITLE=Django Reinhardt - Djangologie 01 - 1928-1936
DYEAR=1970
DGENRE=Jazz
TTITLE0=Griserie
TTITLE1=Carinosa
TTITLE2=Si j'aime Suzy
TTITLE3=Presentation Stomp
TTITLE4=Blue Moon
TTITLE5=Avalon
TTITLE6=What a difference a day made
TTITLE7=Stardust
TTITLE8=Rosetta
TTITLE9=Stardust
TTITLE10=The Object of my Affection
TTITLE11=I'se muggin'
TTITLE12=I can't give you anything but love
TTITLE13=Oriental Shuffle
EXTD=YEAR: 1970
EXTT0=
EXTT1=
EXTT2=
EXTT3=
EXTT4=
EXTT5=
EXTT6=
EXTT7=
EXTT8=
EXTT9=
EXTT10=
EXTT11=
EXTT12=
EXTT13=
PLAYORDER=
